<svg width="40" height="40" viewBox="0 0 40 40" fill="none" xmlns="http://www.w3.org/2000/svg">
<g clip-path="url(#clip0_4_2264)">
<path d="M33.3333 3.33325C34.2533 3.33325 35 4.07992 35 4.99992V11.2616L31.6667 14.5949V6.66659H8.33333V33.3333H31.6667V28.7366L35 25.4033V34.9999C35 35.9199 34.2533 36.6666 33.3333 36.6666H6.66667C5.74667 36.6666 5 35.9199 5 34.9999V4.99992C5 4.07992 5.74667 3.33325 6.66667 3.33325H33.3333ZM36.2967 14.6799L38.6533 17.0366L25.69 29.9999L23.33 29.9966L23.3333 27.6433L36.2967 14.6799ZM21.6667 19.9999V23.3333H13.3333V19.9999H21.6667ZM26.6667 13.3333V16.6666H13.3333V13.3333H26.6667Z" fill="#F4683F"/>
</g>
<defs>
<clipPath id="clip0_4_2264">
<rect width="40" height="40" fill="white"/>
</clipPath>
</defs>
</svg>
